<svg width="13" height="12" viewBox="0 0 13 12" fill="none" xmlns="http://www.w3.org/2000/svg">
<path d="M6.10938 11.2958C6.04785 11.2958 5.97402 11.2773 5.88789 11.2404C5.80586 11.2076 5.73203 11.1707 5.66641 11.1296C4.50977 10.3914 3.50693 9.61821 2.65791 8.81021C1.80889 7.9981 1.15264 7.16548 0.689161 6.31235C0.229786 5.45513 9.81572e-05 4.5897 9.81572e-05 3.71606C9.81572e-05 3.17056 0.086231 2.67222 0.258497 2.22105C0.434864 1.76577 0.678907 1.37202 0.990625 1.0398C1.30234 0.707569 1.66533 0.451221 2.07959 0.270752C2.49385 0.0902836 2.94297 4.92777e-05 3.42695 4.92777e-05C4.02988 4.92777e-05 4.55898 0.153858 5.01426 0.461475C5.46953 0.769092 5.83457 1.17515 6.10938 1.67964C6.38828 1.17105 6.75537 0.764991 7.21064 0.461475C7.66592 0.153858 8.19297 4.92777e-05 8.7918 4.92777e-05C9.27578 4.92777e-05 9.7249 0.0902836 10.1392 0.270752C10.5575 0.451221 10.9205 0.707569 11.2281 1.0398C11.5398 1.37202 11.7818 1.76577 11.9541 2.22105C12.1305 2.67222 12.2187 3.17056 12.2187 3.71606C12.2187 4.5897 11.9869 5.45513 11.5234 6.31235C11.0641 7.16548 10.4099 7.9981 9.56084 8.81021C8.71592 9.61821 7.71514 10.3914 6.5585 11.1296C6.49287 11.1707 6.41699 11.2076 6.33086 11.2404C6.24883 11.2773 6.175 11.2958 6.10938 11.2958Z" fill="white"/>
</svg>
