<svg width="17" height="18" viewBox="0 0 17 18" fill="none" xmlns="http://www.w3.org/2000/svg">
<path d="M2.35113 17.7723C0.783727 17.7723 2.81669e-05 17.2605 2.81669e-05 16.2369C2.81669e-05 15.61 0.191954 14.9414 0.575807 14.2313C0.95966 13.5212 1.51305 12.8526 2.23597 12.2257C2.96529 11.5923 3.84495 11.0773 4.87496 10.6807C5.91136 10.284 7.08211 10.0857 8.38721 10.0857C9.68591 10.0857 10.8503 10.284 11.8803 10.6807C12.9167 11.0773 13.7963 11.5923 14.5193 12.2257C15.2486 12.8526 15.8052 13.5212 16.189 14.2313C16.5729 14.9414 16.7648 15.61 16.7648 16.2369C16.7648 17.2605 15.9811 17.7723 14.4137 17.7723H2.35113ZM1.9001 16.3233H14.8743C14.9959 16.3233 15.0822 16.3041 15.1334 16.2657C15.191 16.2273 15.2198 16.157 15.2198 16.0546C15.2198 15.658 15.0694 15.2037 14.7688 14.6919C14.4745 14.1801 14.0362 13.6843 13.4541 13.2045C12.8719 12.7247 12.1554 12.328 11.3045 12.0146C10.46 11.6947 9.48758 11.5347 8.38721 11.5347C7.28683 11.5347 6.3112 11.6947 5.46033 12.0146C4.60946 12.328 3.89293 12.7247 3.31076 13.2045C2.72858 13.6843 2.28715 14.1801 1.98647 14.6919C1.69218 15.2037 1.54503 15.658 1.54503 16.0546C1.54503 16.157 1.57062 16.2273 1.62181 16.2657C1.67938 16.3041 1.77215 16.3233 1.9001 16.3233ZM8.38721 8.88616C7.6259 8.88616 6.93177 8.68464 6.30481 8.28159C5.67785 7.87855 5.17564 7.33795 4.79819 6.65981C4.42713 5.97528 4.2416 5.22357 4.2416 4.40468C4.2416 3.59219 4.42713 2.85328 4.79819 2.18793C5.17564 1.52259 5.67785 0.99159 6.30481 0.594943C6.93177 0.198295 7.6259 -2.86698e-05 8.38721 -2.86698e-05C9.15491 -2.86698e-05 9.85224 0.195096 10.4792 0.585347C11.1062 0.975597 11.6052 1.50339 11.9762 2.16874C12.3473 2.82769 12.5328 3.5666 12.5328 4.38549C12.5328 5.21077 12.3441 5.96568 11.9666 6.65022C11.5956 7.32836 11.0966 7.87215 10.4696 8.28159C9.84265 8.68464 9.14851 8.88616 8.38721 8.88616ZM8.38721 7.43711C8.86063 7.43711 9.29246 7.30277 9.68271 7.03407C10.0794 6.75898 10.396 6.39112 10.6327 5.93049C10.8695 5.46347 10.9878 4.94847 10.9878 4.38549C10.9878 3.8289 10.8695 3.32989 10.6327 2.88846C10.4024 2.44063 10.089 2.08877 9.69231 1.83287C9.30206 1.57697 8.86702 1.44901 8.38721 1.44901C7.91379 1.44901 7.47876 1.58016 7.08211 1.84246C6.69186 2.09837 6.37838 2.45023 6.14167 2.89806C5.90496 3.34589 5.78661 3.84809 5.78661 4.40468C5.78661 4.96766 5.90496 5.47947 6.14167 5.94009C6.38478 6.40071 6.70145 6.76537 7.0917 7.03407C7.48835 7.30277 7.92019 7.43711 8.38721 7.43711Z" fill="#A9AFB9"/>
</svg>
